<?xml version="1.0" encoding="utf-8"?>
<!-- Generator: Adobe Illustrator 27.5.0, SVG Export Plug-In . SVG Version: 6.00 Build 0)  -->
<svg version="1.1" xmlns="http://www.w3.org/2000/svg" xmlns:xlink="http://www.w3.org/1999/xlink" x="0px" y="0px"
	 viewBox="0 0 2200 2200" style="enable-background:new 0 0 2200 2200;" xml:space="preserve">
<g id="Objects">
	<path style="fill:#ff477e;" d="M1907.077,623.957c-7.101-50.137-23.803-99.099-48.806-143.131c-69.212-122.899-202.469-205.261-342.732-215.692
		c-171.634-13.137-353.376,80.583-421.922,240.928c-0.811,1.953-1.594,3.922-2.363,5.897
		c-16.566-49.396-39.517-96.63-71.107-139.012c-68.567-93.198-180.972-156.408-298.389-155.517
		c-71.343-0.13-141.959,20.619-203.416,56.365c-94.805,54.402-160.846,142.236-195.136,245.098
		c-52.665,165.96-42.61,345.635,14.526,508.365c56.27,158.434,161.254,297.184,289.169,404.657
		c71.421,60.754,152.256,114.557,245.384,133.342c17.029,3.009,28.09-17.229,17.02-29.863c-5.776-6.665-12.016-13.091-18.165-19.229
		c-56.013-56.551-119.935-104.78-177.527-158.861C506.717,1181.782,400.501,938.069,431.95,680.964
		c10.058-86.793,35.089-171.062,94.389-235.475c52.092-55.504,127.221-91.948,203.356-92.293
		c79.492,0.553,168.944,34.491,228.991,85.745c36.003,30.673,91.267,101.9,115.442,152.345c7.838,16.356,25.872,12.91,34.839,0.012
		c7.528-10.812,19.471-28.839,26.643-37.866c90.292-112.164,242.564-172.678,383.661-149.864
		c76.393,13.61,147.442,57.757,191.767,121.65c34.469,49.06,50.334,108.641,46.841,168.362
		c-12.014,278.608-281.102,522.53-466.215,713.44c-149.127,154.103-349.689,332.482-378.879,556.053
		c-1.11,20.284,23.159,25.675,32.427,11.774c61.106-88.489,133.257-165.095,208.583-241.54
		c113.7-117.972,237.446-226.411,355.996-340.573c144.998-141.378,288.238-294.534,360.88-488.172
		C1903.085,815.791,1919.477,718.441,1907.077,623.957z"/>
</g>
</svg>
